<svg width="333.668" height="333.668" xmlns="http://www.w3.org/2000/svg">

 <g>
  <title>background</title>
  <rect fill="none" id="canvas_background" height="402" width="582" y="-1" x="-1"/>
 </g>
 <g>
  <title>Layer 1</title>
  <g id="svg_1">
   <path id="svg_2" d="m295.101,298.649l-256.54,0c-21.266,0 -38.561,-17.295 -38.561,-38.561l0,-156.385c0,-21.266 17.295,-38.561 38.561,-38.561l52.347,0l4.582,-15.457c1.87,-8.458 9.602,-14.666 18.696,-14.666l105.297,0c8.837,0 16.658,6.176 18.728,14.743l0.122,0.527l4.177,14.852l52.597,0c21.266,0 38.561,17.295 38.561,38.561l0,156.384c-0.006,21.268 -17.307,38.563 -38.567,38.563zm-256.54,-220.653c-14.178,0 -25.707,11.53 -25.707,25.707l0,156.384c0,14.178 11.53,25.707 25.707,25.707l256.54,0c14.178,0 25.707,-11.53 25.707,-25.707l0,-156.384c0,-14.178 -11.53,-25.707 -25.707,-25.707l-62.327,0l-7.037,-25.097c-0.649,-2.918 -3.278,-5.032 -6.26,-5.032l-105.298,0c-3.027,0 -5.598,2.069 -6.26,5.039l-7.429,25.09l-61.929,0zm128.28,181.802c-44.981,0 -81.576,-36.588 -81.576,-81.563c0,-44.981 36.594,-81.569 81.576,-81.569c44.969,0 81.557,36.594 81.557,81.569c-0.001,44.969 -36.589,81.563 -81.557,81.563zm0,-150.285c-37.893,0 -68.722,30.823 -68.722,68.716s30.83,68.709 68.722,68.709c37.886,0 68.703,-30.823 68.703,-68.709c-0.001,-37.893 -30.824,-68.716 -68.703,-68.716zm119.963,-7.661c-6.555,0 -11.858,5.315 -11.858,11.858c0,6.549 5.302,11.857 11.858,11.857c6.549,0 11.851,-5.309 11.851,-11.857c-0.006,-6.543 -5.309,-11.858 -11.851,-11.858z"/>
  </g>
  <g id="svg_3"/>
  <g id="svg_4"/>
  <g id="svg_5"/>
  <g id="svg_6"/>
  <g id="svg_7"/>
  <g id="svg_8"/>
  <g id="svg_9"/>
  <g id="svg_10"/>
  <g id="svg_11"/>
  <g id="svg_12"/>
  <g id="svg_13"/>
  <g id="svg_14"/>
  <g id="svg_15"/>
  <g id="svg_16"/>
  <g id="svg_17"/>
  <text stroke="#000" transform="matrix(7.060485257101993,0,0,6.582194313597919,-800.7355602626787,-846.0385761385143) " xml:space="preserve" text-anchor="start" font-family="Helvetica, Arial, sans-serif" font-size="24" id="svg_18" y="164.317618" x="127.05472" stroke-width="0" fill="#000000">M</text>
  <rect id="svg_20" height="30.612244" width="11.836734" y="111.503397" x="121.174137" fill-opacity="null" stroke-opacity="null" stroke-width="0" stroke="#000" fill="#000000"/>
  <rect id="svg_22" height="30.612244" width="11.836734" y="111.503397" x="201.840785" fill-opacity="null" stroke-opacity="null" stroke-width="0" stroke="#000" fill="#000000"/>
 </g>
</svg>