<?xml version="1.0" standalone="no"?>
<!DOCTYPE svg PUBLIC "-//W3C//DTD SVG 20010904//EN"
 "http://www.w3.org/TR/2001/REC-SVG-20010904/DTD/svg10.dtd">
<svg version="1.0" xmlns="http://www.w3.org/2000/svg"
 width="700.000000pt" height="700.000000pt" viewBox="0 0 700.000000 700.000000"
 preserveAspectRatio="xMidYMid meet">
<metadata>
Created by potrace 1.11, written by Peter Selinger 2001-2013
</metadata>
<g transform="translate(0.000000,700.000000) scale(0.100000,-0.100000)"
fill="#000000" stroke="none">
<path d="M2295 6250 c-58 -15 -129 -51 -170 -87 -26 -23 -77 -91 -93 -123 -12
-24 -66 -200 -99 -320 -8 -30 -19 -62 -23 -70 -7 -13 -82 -15 -567 -16 -307
-1 -590 -4 -629 -8 -120 -11 -294 -80 -394 -157 -109 -85 -205 -211 -258 -339
-66 -161 -63 -62 -60 -1984 l3 -1741 23 -73 c98 -317 347 -540 657 -587 66
-11 5509 -13 5600 -3 322 36 586 262 687 590 l23 73 2 1755 c2 1727 2 1756
-18 1840 -35 149 -109 286 -214 396 -68 71 -213 160 -313 193 -128 41 -166 44
-776 45 l-588 1 -53 185 c-28 102 -62 205 -75 229 -46 92 -164 182 -270 207
-19 4 -552 8 -1185 9 -996 0 -1158 -2 -1210 -15z m2371 -272 c17 -10 38 -28
47 -42 9 -14 44 -123 78 -243 33 -120 68 -243 77 -273 l17 -55 670 -1 c369 0
692 -4 718 -8 60 -8 150 -41 202 -74 22 -14 69 -54 104 -90 69 -70 120 -165
140 -260 8 -38 11 -537 11 -1750 0 -1862 3 -1757 -61 -1883 -35 -70 -131 -173
-204 -218 -27 -18 -81 -41 -120 -53 l-70 -22 -2754 0 c-3000 -1 -2823 -5
-2951 56 -85 41 -205 160 -243 242 -60 126 -57 29 -57 1872 0 1163 3 1709 11
1750 35 193 192 360 395 420 54 16 121 17 745 18 l686 0 22 71 c12 38 50 166
85 284 39 130 72 221 83 233 44 43 36 43 1214 43 1026 -1 1127 -2 1155 -17z"/>
<path d="M3240 4950 c-369 -61 -677 -215 -934 -468 -278 -273 -446 -610 -504
-1007 -9 -63 -8 -363 1 -430 40 -285 142 -545 305 -775 109 -155 332 -366 482
-457 174 -106 409 -200 565 -227 17 -3 62 -11 100 -17 82 -14 380 -19 443 -8
23 5 64 11 90 15 127 17 332 84 471 154 344 172 604 435 780 787 28 57 48 103
45 103 -4 0 -2 6 3 13 25 31 77 218 102 364 31 178 15 553 -28 666 -6 15 -9
27 -7 27 6 0 -17 71 -53 168 -33 88 -114 257 -136 282 -7 8 -21 31 -30 50 -10
19 -21 37 -24 40 -4 3 -32 39 -63 80 -31 41 -70 88 -87 104 -17 17 -31 36 -31
43 0 7 -5 13 -11 13 -5 0 -34 22 -62 49 -61 57 -201 161 -284 211 -50 30 -204
105 -268 131 -238 95 -600 132 -865 89z m441 -260 c24 -4 62 -10 84 -13 100
-14 274 -75 395 -138 l76 -39 -3 -66 c-2 -54 -20 -114 -99 -333 -52 -146 -123
-342 -156 -436 -33 -93 -75 -210 -93 -260 -18 -49 -63 -175 -100 -280 -37
-104 -89 -248 -115 -320 -26 -71 -71 -197 -100 -278 -29 -81 -56 -144 -60
-140 -4 4 -59 152 -123 328 -63 176 -224 617 -356 980 -241 659 -241 660 -241
741 l0 81 98 45 c141 66 230 93 412 126 59 11 324 12 381 2z m-1393 -1425 c0
-421 -3 -765 -7 -765 -10 0 -97 169 -125 244 -23 60 -47 139 -61 201 -43 182
-44 449 -1 630 17 74 61 206 86 263 31 68 98 192 104 192 2 0 4 -344 4 -765z
m337 745 c5 -9 45 -117 126 -345 22 -60 48 -132 58 -160 41 -108 93 -250 176
-480 48 -132 104 -287 125 -345 21 -58 80 -220 131 -360 50 -140 93 -257 95
-259 3 -3 240 -4 324 -2 21 1 29 9 39 39 47 132 234 651 241 667 5 11 38 106
75 210 37 105 71 199 75 210 5 11 45 124 90 250 45 127 86 239 90 250 5 11 33
89 64 173 30 85 57 156 61 160 3 4 9 1 13 -5 4 -6 7 -428 6 -938 l0 -927 -25
-19 c-186 -148 -467 -267 -694 -296 -78 -10 -324 -9 -395 1 -135 19 -329 80
-452 142 -48 24 -186 113 -230 147 -17 13 -18 71 -18 956 0 581 4 941 9 941 6
0 12 -4 16 -10z m2162 -105 c57 -112 112 -275 129 -380 3 -22 9 -59 13 -82 10
-54 10 -313 0 -367 -4 -22 -10 -59 -13 -81 -17 -107 -58 -227 -123 -364 -30
-62 -57 -110 -61 -107 -3 4 -6 339 -6 746 -1 619 1 737 12 723 8 -10 30 -49
49 -88z"/>
<path d="M5931 4848 c-18 -5 -57 -33 -85 -61 -59 -59 -81 -117 -74 -194 24
-247 355 -310 463 -89 67 136 6 292 -132 342 -44 15 -123 16 -172 2z"/>
</g>
</svg>
